<svg width="166" height="241" viewBox="0 0 166 241" fill="none" xmlns="http://www.w3.org/2000/svg">
<path d="M166 0V88.2129L160.362 93.1136V5.18899L166 0Z" fill="#F58859"/>
<path d="M152.532 12.3959V100.321L147.208 105.51V17.2966L152.532 12.3959Z" fill="#F58859"/>
<path d="M139.377 24.5036V112.716L133.74 117.617V29.6926L139.377 24.5036Z" fill="#F58859"/>
<path d="M125.909 36.8995V125.112L120.272 130.013V42.0885L125.909 36.8995Z" fill="#F58859"/>
<path d="M112.442 49.2954V137.22L107.117 142.409V54.1961L112.442 49.2954Z" fill="#F58859"/>
<path d="M99.2868 61.4031V149.616L93.6491 154.805V66.5921L99.2868 61.4031Z" fill="#F58859"/>
<path d="M85.8188 73.799V162.012L80.1811 166.913V78.988L85.8188 73.799Z" fill="#F58859"/>
<path d="M72.3509 86.195V174.12L66.7132 179.309V91.384L72.3509 86.195Z" fill="#F58859"/>
<path d="M58.8829 98.5909V186.516L53.5584 191.705V103.492L58.8829 98.5909Z" fill="#F58859"/>
<path d="M45.7283 110.699V198.911L40.0905 203.812V115.888L45.7283 110.699Z" fill="#F58859"/>
<path d="M32.2604 123.095V211.307L26.6226 216.208V128.284L32.2604 123.095Z" fill="#F58859"/>
<path d="M18.7924 135.49V223.415L13.4679 228.604V140.391L18.7924 135.49Z" fill="#F58859"/>
<path d="M5.63773 147.598V235.811L0 241V152.787L5.63773 147.598Z" fill="#F58859"/>
</svg>
