<svg width="32" height="32" viewBox="0 0 32 32" fill="none" xmlns="http://www.w3.org/2000/svg">
<path d="M16.0001 29.3334C8.63608 29.3334 2.66675 23.3641 2.66675 16.0001C2.66675 8.63608 8.63608 2.66675 16.0001 2.66675C23.3641 2.66675 29.3334 8.63608 29.3334 16.0001C29.3334 23.3641 23.3641 29.3334 16.0001 29.3334ZM9.33341 16.0001C9.33341 17.7682 10.0358 19.4639 11.286 20.7141C12.5363 21.9644 14.232 22.6667 16.0001 22.6667C17.7682 22.6667 19.4639 21.9644 20.7141 20.7141C21.9644 19.4639 22.6667 17.7682 22.6667 16.0001H20.0001C20.0001 17.0609 19.5787 18.0784 18.8285 18.8285C18.0784 19.5787 17.0609 20.0001 16.0001 20.0001C14.9392 20.0001 13.9218 19.5787 13.1717 18.8285C12.4215 18.0784 12.0001 17.0609 12.0001 16.0001H9.33341Z" fill="#F58859"/>
</svg>
