<svg width="48" height="48" viewBox="0 0 48 48" fill="none" xmlns="http://www.w3.org/2000/svg">
<path d="M23.9999 46C20.9942 45.9997 18.058 45.0965 15.5718 43.4074C13.0856 41.7183 11.1641 39.3213 10.0566 36.5271C8.94913 33.7328 8.7066 30.6704 9.36051 27.7367C10.0144 24.803 11.5346 22.1334 13.7239 20.074C16.4079 17.548 22.9999 13 21.9999 3C33.9999 11 39.9999 19 27.9999 31C29.9999 31 32.9999 31 37.9999 26.06C38.5399 27.606 38.9999 29.268 38.9999 31C38.9999 34.9782 37.4196 38.7936 34.6065 41.6066C31.7935 44.4196 27.9782 46 23.9999 46Z" fill="#F58859"/>
</svg>
